<?xml version="1.0" encoding="utf-8"?>
<!-- Svg Vector Icons : http://www.onlinewebfonts.com/icon -->
<!DOCTYPE svg PUBLIC "-//W3C//DTD SVG 1.1//EN" "http://www.w3.org/Graphics/SVG/1.1/DTD/svg11.dtd">
<svg version="1.1" xmlns="http://www.w3.org/2000/svg" xmlns:xlink="http://www.w3.org/1999/xlink" x="0px" y="0px" viewBox="0 0 1000 1000" enable-background="new 0 0 1000 1000" xml:space="preserve">
<metadata> Svg Vector Icons : http://www.onlinewebfonts.com/icon </metadata>
<g><path d="M272.8,449.8c5.5,5.4,12.8,8.1,20,8.1c7.3,0,14.5-2.7,20-8.1l44.8-43.8l44.8,43.8c5.5,5.4,12.8,8.1,20,8.1c7.3,0,14.5-2.7,20-8.1c11-10.8,11-28.3,0-39.2l-44.7-43.8l44.7-43.8c11-10.9,11-28.3,0-39.2c-11-10.7-29-10.7-40,0l-44.8,43.8l-44.8-43.8c-11-10.7-28.9-10.7-40,0c-11.1,10.9-11.1,28.4,0,39.2l44.7,43.8l-44.7,43.8C261.7,421.5,261.7,439,272.8,449.8z"/><path d="M557.7,449.8c5.5,5.4,12.8,8.1,20,8.1c7.2,0,14.5-2.7,20-8.1l44.8-43.8l44.7,43.8c5.6,5.4,12.8,8.1,20,8.1c7.3,0,14.5-2.7,20-8.1c11-10.8,11-28.3,0-39.2l-44.8-43.8l44.8-43.8c11-10.9,11-28.3,0-39.2c-11.1-10.7-29-10.7-40.1,0l-44.8,43.8l-44.8-43.8c-11-10.7-28.9-10.7-40,0c-11.1,10.9-11.1,28.4,0,39.2l44.7,43.8l-44.7,43.8C546.6,421.5,546.6,439,557.7,449.8z"/><path d="M500,20.5c-270.2,0-490,215.2-490,479.6c0,264.4,219.8,479.4,490,479.4c270.2,0,490-215.1,490-479.4C990,235.7,770.2,20.5,500,20.5z M500,942.6c-249.3,0-452.2-198.5-452.2-442.5C47.8,256,250.7,57.4,500,57.4c249.4,0,452.3,198.6,452.3,442.7C952.3,744.1,749.4,942.6,500,942.6z"/><path d="M722.1,597.7H277.9c-15.6,0-28.3,12.4-28.3,27.8c0,15.2,12.7,27.6,28.3,27.6h198v48.8c0,44.9,44.6,81.3,99.6,81.3c55.1,0,99.6-36.4,99.6-81.3v-48.8h47c15.6,0,28.3-12.4,28.3-27.6C750.4,610.1,737.8,597.7,722.1,597.7z"/></g>
</svg>